<?xml version="1.0" encoding="UTF-8"?>
<svg width="100px" height="100px" viewBox="0 0 100 100" version="1.1" xmlns="http://www.w3.org/2000/svg" xmlns:xlink="http://www.w3.org/1999/xlink">
    <!-- Generator: Sketch 50 (54983) - http://www.bohemiancoding.com/sketch -->
    <title>clock-icon</title>
    <desc>Created with Sketch.</desc>
    <defs></defs>
    <g id="Page-1" stroke="none" stroke-width="1" fill="none" fill-rule="evenodd">
        <g id="clock-icon" fill="#000000" fill-rule="nonzero">
            <path d="M90.7514451,50 C90.7514451,52.0323326 90.6127168,54.0646651 90.3468208,56.0854503 C90.4046243,55.6812933 90.4624277,55.2655889 90.5086705,54.8614319 C89.9653179,58.8221709 88.9132948,62.7020785 87.3526012,66.3856813 C87.5028902,66.0161663 87.6647399,65.6466513 87.8150289,65.2771363 C86.2890173,68.8799076 84.300578,72.2632794 81.9075145,75.3579677 C82.150289,75.0461894 82.3930636,74.7344111 82.6358382,74.4226328 C80.2774566,77.448037 77.5491329,80.1732102 74.5202312,82.5288684 C74.8323699,82.2863741 75.1445087,82.0438799 75.4566474,81.8013857 C72.3583815,84.1916859 68.9710983,86.1778291 65.3641618,87.7020785 C65.734104,87.551963 66.1040462,87.3903002 66.4739884,87.2401848 C62.7861272,88.7875289 58.9017341,89.8498845 54.9364162,90.3926097 C55.3410405,90.334873 55.7572254,90.2771363 56.1618497,90.2309469 C52.1156069,90.7621247 48.0115607,90.7621247 43.9653179,90.2309469 C44.3699422,90.2886836 44.7861272,90.3464203 45.1907514,90.3926097 C41.2254335,89.8498845 37.3410405,88.7990762 33.6531792,87.2401848 C34.0231214,87.3903002 34.3930636,87.551963 34.7630058,87.7020785 C31.1560694,86.1778291 27.7687861,84.1916859 24.6705202,81.8013857 C24.982659,82.0438799 25.2947977,82.2863741 25.6069364,82.5288684 C22.5780347,80.1732102 19.849711,77.448037 17.4913295,74.4226328 C17.734104,74.7344111 17.9768786,75.0461894 18.2196532,75.3579677 C15.8265896,72.2632794 13.8381503,68.8799076 12.3121387,65.2771363 C12.4624277,65.6466513 12.6242775,66.0161663 12.7745665,66.3856813 C11.2254335,62.7020785 10.1618497,58.8221709 9.61849711,54.8614319 C9.67630058,55.2655889 9.73410405,55.6812933 9.78034682,56.0854503 C9.24855491,52.0438799 9.24855491,47.9445727 9.78034682,43.9030023 C9.72254335,44.3071594 9.66473988,44.7228637 9.61849711,45.1270208 C10.1618497,41.1662818 11.2138728,37.2863741 12.7745665,33.6027714 C12.6242775,33.9722864 12.4624277,34.3418014 12.3121387,34.7113164 C13.8381503,31.108545 15.8265896,27.7251732 18.2196532,24.630485 C17.9768786,24.9422633 17.734104,25.2540416 17.4913295,25.5658199 C19.849711,22.5404157 22.5780347,19.8152425 25.6069364,17.4595843 C25.2947977,17.7020785 24.982659,17.9445727 24.6705202,18.187067 C27.7687861,15.7967667 31.1560694,13.8106236 34.7630058,12.2863741 C34.3930636,12.4364896 34.0231214,12.5981524 33.6531792,12.7482679 C37.3410405,11.2009238 41.2254335,10.1385681 45.1907514,9.59584296 C44.7861272,9.65357968 44.3699422,9.7113164 43.9653179,9.75750577 C48.0115607,9.22632794 52.1156069,9.22632794 56.1618497,9.75750577 C55.7572254,9.69976905 55.3410405,9.64203233 54.9364162,9.59584296 C58.9017341,10.1385681 62.7861272,11.1893764 66.4739884,12.7482679 C66.1040462,12.5981524 65.734104,12.4364896 65.3641618,12.2863741 C68.9710983,13.8106236 72.3583815,15.7967667 75.4566474,18.187067 C75.1445087,17.9445727 74.8323699,17.7020785 74.5202312,17.4595843 C77.5491329,19.8152425 80.2774566,22.5404157 82.6358382,25.5658199 C82.3930636,25.2540416 82.150289,24.9422633 81.9075145,24.630485 C84.300578,27.7251732 86.2890173,31.108545 87.8150289,34.7113164 C87.6647399,34.3418014 87.5028902,33.9722864 87.3526012,33.6027714 C88.9017341,37.2863741 89.9653179,41.1662818 90.5086705,45.1270208 C90.4508671,44.7228637 90.3930636,44.3071594 90.3468208,43.9030023 C90.6127168,45.9353349 90.7514451,47.9676674 90.7514451,50 C90.7514451,52.4133949 92.8786127,54.7344111 95.3757225,54.6189376 C97.8728324,54.5034642 100,52.5866051 100,50 C99.9768786,39.8729792 96.8786127,29.6882217 90.982659,21.4318707 C89.433526,19.26097 87.7572254,17.182448 85.9075145,15.2655889 C84.0809249,13.3833718 82.0924855,11.7090069 80.0115607,10.1154734 C76.0462428,7.07852194 71.6184971,4.76905312 66.9248555,3.04849885 C57.2601156,-0.496535797 46.3236994,-0.808314088 36.4277457,1.99769053 C26.9017341,4.69976905 18.0924855,10.3233256 11.7919075,17.9676674 C10.0924855,20.0230947 8.50867052,22.182448 7.13294798,24.4688222 C5.76878613,26.743649 4.65895954,29.1224018 3.65317919,31.5704388 C1.71098266,36.3048499 0.63583815,41.3394919 0.242774566,46.443418 C-0.543352601,56.6050808 1.98843931,67.0669746 7.28323699,75.7852194 C12.3930636,84.2032333 20.0809249,91.2009238 29.0867052,95.2655889 C31.5375723,96.3741339 34.0462428,97.3441109 36.6473988,98.0715935 C39.2947977,98.8106236 42.0115607,99.26097 44.7398844,99.5842956 C49.9306358,100.184758 55.2138728,99.8614319 60.3352601,98.8221709 C70.0809249,96.8475751 79.2485549,91.6974596 86.1040462,84.5265589 C92.9942197,77.3210162 97.8034682,67.9907621 99.3063584,58.1062356 C99.7109827,55.4157044 99.9884393,52.7251732 99.9884393,50 C99.9884393,47.5866051 97.8612717,45.2655889 95.3641618,45.3810624 C92.867052,45.4965358 90.7514451,47.4133949 90.7514451,50 Z" id="Shape"></path>
            <path d="M45.3179191,22.3787529 C45.3179191,24.9538106 45.3179191,27.517321 45.3179191,30.0923788 C45.3179191,34.6766744 45.3179191,39.2725173 45.3179191,43.8568129 C45.3179191,45.4734411 45.3179191,47.0900693 45.3179191,48.7066975 C45.3179191,50.4387991 45.3641618,51.9284065 46.7514451,53.3487298 C49.1676301,55.8198614 51.6531792,58.221709 54.1040462,60.6466513 C56.6242775,63.1408776 59.1213873,65.6581986 61.6531792,68.1408776 C61.699422,68.187067 61.7456647,68.2332564 61.7919075,68.2794457 C63.5144509,69.9884527 66.6358382,70.1270208 68.3352601,68.2794457 C70.0231214,66.443418 70.1734104,63.5681293 68.3352601,61.743649 C66.6358382,60.0577367 64.9364162,58.3602771 63.2254335,56.6743649 C60.5086705,53.9838337 57.7919075,51.2817552 55.0867052,48.591224 C54.4624277,47.9676674 53.8381503,47.3441109 53.2138728,46.7321016 C53.6647399,47.817552 54.1156069,48.9145497 54.566474,50 C54.566474,46.8937644 54.566474,43.7875289 54.566474,40.669746 C54.566474,35.7159353 54.566474,30.7505774 54.566474,25.7967667 C54.566474,24.6535797 54.566474,23.5103926 54.566474,22.3672055 C54.566474,19.9538106 52.4393064,17.6327945 49.9421965,17.7482679 C47.433526,17.8637413 45.3179191,19.7806005 45.3179191,22.3787529 Z" id="Shape"></path>
        </g>
    </g>
</svg>