<svg width="168" height="110" viewBox="0 0 168 110" fill="none" xmlns="http://www.w3.org/2000/svg">
<path d="M8.32598e-08 8C3.72767e-08 3.58172 3.58172 0 8 0H102C106.418 0 110 3.58172 110 8V160C110 164.418 106.418 168 102 168H8C3.58172 168 1.71118e-06 164.418 1.6652e-06 160L8.32598e-08 8Z" transform="translate(168) rotate(90)" fill="#131157"/>
<path d="M3.82787 3.47989C2.47522 2.2502 3.34515 0 5.17321 0H102C106.418 0 110 3.58172 110 8V100L3.82787 3.47989Z" transform="translate(168) rotate(90)" fill="#82466E"/>
<path fill-rule="evenodd" clip-rule="evenodd" d="M2.73994 12.5763L7.28555 5.52673L11.9184 12.3615C13.3288 11.1591 14.2647 9.42537 14.3805 7.45266C14.6085 3.56662 11.5771 0.235426 7.60936 0.0118232C3.64182 -0.211566 0.240352 2.75742 0.0120471 6.64346C-0.127945 9.02749 0.962558 11.1995 2.73994 12.5763Z" transform="translate(129.71 56)" fill="white"/>
<path fill-rule="evenodd" clip-rule="evenodd" d="M14.3925 7.83339L5.84891 7.73557L9.37837 0.322351C7.58727 -0.221776 5.58191 -0.0946207 3.79913 0.838199C0.287181 2.67577 -1.02638 6.9314 0.864955 10.3433C2.75629 13.7554 7.13643 15.0316 10.6484 13.1941C12.803 12.0667 14.1253 10.0282 14.3925 7.83339Z" transform="translate(117 78.9656)" fill="white"/>
<path fill-rule="evenodd" clip-rule="evenodd" d="M0 7.94284L8.54938 7.71448L4.89685 0.356367C6.68073 -0.215169 8.69003 -0.118637 10.4892 0.786934C14.034 2.57065 15.4174 6.80572 13.5796 10.246C11.7419 13.6863 7.37846 15.0292 3.83393 13.2455C1.65923 12.1509 0.302753 10.1329 0 7.94284Z" transform="translate(142.607 78.9656)" fill="white"/>
</svg>
