<?xml version="1.0" encoding="UTF-8"?>
<svg width="80px" height="18px" viewBox="0 0 80 18" version="1.1" xmlns="http://www.w3.org/2000/svg" xmlns:xlink="http://www.w3.org/1999/xlink">
    <!-- Generator: Sketch 50 (54983) - http://www.bohemiancoding.com/sketch -->
    <title>noun_243787_cc</title>
    <desc>Created with Sketch.</desc>
    <defs></defs>
    <g id="Page-1" stroke="none" stroke-width="1" fill="none" fill-rule="evenodd" opacity="0.25">
        <g id="noun_243787_cc" fill="#000000" fill-rule="nonzero">
            <path d="M31.2,9 C31.2,4.1 35.2,0.2 40,0.2 C44.8,0.2 48.8,4.2 48.8,9 C48.8,13.9 44.8,17.8 40,17.8 C35.2,17.8 31.2,13.9 31.2,9 Z M70.3,0.2 C65.4,0.2 61.5,4.2 61.5,9 C61.5,13.9 65.5,17.8 70.3,17.8 C75.1,17.8 79.1,13.8 79.1,9 C79.2,4.1 75.2,0.2 70.3,0.2 Z M9.7,0.2 C4.8,0.2 0.9,4.2 0.9,9 C0.9,13.9 4.9,17.8 9.7,17.8 C14.5,17.8 18.5,13.8 18.5,9 C18.5,4.1 14.5,0.2 9.7,0.2 Z" id="Shape"></path>
        </g>
    </g>
</svg>