<?xml version="1.0" encoding="UTF-8"?>
<svg width="100px" height="100px" viewBox="0 0 100 100" version="1.1" xmlns="http://www.w3.org/2000/svg" xmlns:xlink="http://www.w3.org/1999/xlink">
    <!-- Generator: Sketch 50 (54983) - http://www.bohemiancoding.com/sketch -->
    <title>search-icon</title>
    <desc>Created with Sketch.</desc>
    <defs></defs>
    <g id="Page-1" stroke="none" stroke-width="1" fill="none" fill-rule="evenodd" opacity="0.25">
        <g id="search-icon" fill="#000000" fill-rule="nonzero">
            <path d="M98.2800983,90.4995905 L73.8465738,66.0660661 C86.1315862,50.0955501 84.9030849,27.0270271 70.1610702,12.4215124 C62.1075621,4.36800436 51.7335517,0.409500409 41.2230412,0.409500409 C30.7125307,0.409500409 20.3385203,4.36800436 12.2850123,12.4215124 C-3.68550369,28.3920284 -3.68550369,54.3270543 12.2850123,70.2975703 C20.3385203,78.3510784 30.7125307,82.3095823 41.2230412,82.3095823 C49.95905,82.3095823 58.6950587,79.5795796 65.929566,73.9830739 L90.4995905,98.2800983 C91.5915916,99.3720994 92.9565929,99.9180999 94.4580944,99.9180999 C95.8230959,99.9180999 97.3245974,99.3720994 98.4165984,98.2800983 C100.464101,96.2325963 100.464101,92.6835927 98.2800983,90.4995905 Z M41.3595413,71.2530712 C33.3060333,71.2530712 25.935026,68.1135681 20.2020202,62.5170625 C8.5995086,50.9145509 8.5995086,31.9410319 20.2020202,20.2020202 C25.7985258,14.6055146 33.3060333,11.4660115 41.3595413,11.4660115 C49.4130494,11.4660115 56.7840568,14.6055146 62.5170625,20.2020202 C68.2500683,25.7985258 71.2530712,33.3060333 71.2530712,41.3595413 C71.2530712,49.4130494 68.1135681,56.7840568 62.5170625,62.5170625 C56.920557,68.2500683 49.2765493,71.2530712 41.3595413,71.2530712 Z" id="Shape"></path>
        </g>
    </g>
</svg>