<?xml version="1.0" encoding="UTF-8"?>
<svg width="100px" height="100px" viewBox="0 0 100 100" version="1.1" xmlns="http://www.w3.org/2000/svg" xmlns:xlink="http://www.w3.org/1999/xlink">
    <!-- Generator: Sketch 50 (54983) - http://www.bohemiancoding.com/sketch -->
    <title>settings</title>
    <desc>Created with Sketch.</desc>
    <defs></defs>
    <g id="Page-1" stroke="none" stroke-width="1" fill="none" fill-rule="evenodd">
        <g id="settings" fill="#000000" fill-rule="nonzero">
            <path d="M98.44,43.73 C97.64,43.22 91.33,39.45 88.83,38.3 L85.73,30.8 C86.65,28.32 88.42,21.37 88.73,20.16 C88.9824078,19.0406725 88.6425754,17.8701388 87.83,17.06 L82.94,12.2 C82.1318749,11.384031 80.9594441,11.0436479 79.84,11.3 C78.92,11.51 71.84,13.3 69.2,14.3 L61.7,11.2 C60.61,8.8 56.94,2.65 56.27,1.59 C55.6677376,0.603528433 54.5957874,0.00126665179 53.44,0 L46.56,0 C45.4116398,0.000575281729 44.3436013,0.589317351 43.73,1.56 C43.22,2.36 39.45,8.67 38.3,11.17 L30.8,14.27 C28.32,13.35 21.37,11.58 20.16,11.27 C19.0406725,11.0175922 17.8701388,11.3574246 17.06,12.17 L12.2,17.06 C11.384031,17.8681251 11.0436479,19.0405559 11.3,20.16 C11.51,21.08 13.3,28.16 14.3,30.8 L11.2,38.3 C8.8,39.39 2.65,43.06 1.59,43.73 C0.603528433,44.3322624 0.00126665179,45.4042126 0,46.56 L0,53.43 C0.000575281729,54.5783602 0.589317351,55.6463987 1.56,56.26 C2.36,56.77 8.67,60.54 11.17,61.69 L14.27,69.19 C13.35,71.67 11.58,78.62 11.27,79.83 C11.0175922,80.9493275 11.3574246,82.1198612 12.17,82.93 L17.03,87.79 C17.8381251,88.605969 19.0105559,88.9463521 20.13,88.69 C21.05,88.48 28.13,86.69 30.77,85.69 L38.27,88.79 C39.36,91.19 43.03,97.34 43.7,98.4 C44.305342,99.3994681 45.3915289,100.007125 46.56,100 L53.43,100 C54.5783602,99.9994247 55.6463987,99.4106826 56.26,98.44 C56.77,97.64 60.54,91.33 61.69,88.83 L69.19,85.73 C71.67,86.65 78.62,88.42 79.83,88.73 C80.9493275,88.9824078 82.1198612,88.6425754 82.93,87.83 L87.79,82.97 C88.605969,82.1618749 88.9463521,80.9894441 88.69,79.87 C88.48,78.95 86.69,71.87 85.69,69.23 L88.79,61.73 C91.19,60.64 97.34,56.97 98.4,56.3 C99.3994681,55.694658 100.007125,54.6084711 100,53.44 L100,46.56 C100.009046,45.4091825 99.4178974,44.3367779 98.44,43.73 Z M50,71.77 C37.9657228,71.7589492 28.218971,61.9942834 28.2300184,49.9600061 C28.2410657,37.9257289 38.0057289,28.1789744 50.0400061,28.1900184 C62.0742833,28.2010624 71.8210406,37.9657228 71.81,50 C71.7824406,62.0274201 62.0274504,71.7645195 50,71.77 Z" id="Shape"></path>
        </g>
    </g>
</svg>