<?xml version="1.0" encoding="UTF-8"?>
<svg width="100px" height="86px" viewBox="0 0 100 86" version="1.1" xmlns="http://www.w3.org/2000/svg" xmlns:xlink="http://www.w3.org/1999/xlink">
    <!-- Generator: Sketch 50 (54983) - http://www.bohemiancoding.com/sketch -->
    <title>noun_1099164_cc</title>
    <desc>Created with Sketch.</desc>
    <defs></defs>
    <g id="Page-1" stroke="none" stroke-width="1" fill="none" fill-rule="evenodd">
        <g id="noun_1099164_cc" fill="#000000">
            <path d="M99.0749008,41.202877 C100.042163,42.1701389 100.042163,43.7425595 99.0749008,44.7098214 L79.233631,64.5510913 C78.7475199,65.0372024 78.1125992,65.280258 77.4776786,65.280258 C76.8477182,65.280258 76.2127976,65.0372024 75.7266865,64.5510913 C74.7594246,63.5838294 74.7594246,62.0114087 75.7266865,61.0441468 L91.3318452,45.4389881 L52.6760913,45.4389881 C51.3070437,45.4389881 50.1959325,44.327877 50.1959325,42.9588294 C50.1959325,41.5848214 51.3070437,40.4786706 52.6760913,40.4786706 L91.3318452,40.4786706 L75.7266865,24.8685515 C74.7594246,23.9012896 74.7594246,22.328869 75.7266865,21.3616071 C76.6939485,20.3943452 78.266369,20.3943452 79.233631,21.3616071 L99.0749008,41.202877 Z M42.7579365,85.1190476 C19.5089286,85.1190476 0.595238095,66.2053571 0.595238095,42.9563492 C0.595238095,19.7073413 19.5089286,0.793650833 42.7579365,0.793650833 C50.0297619,0.793650833 57.2321429,2.70833333 63.5813492,6.32440476 C64.7718254,6.99900798 65.188492,8.51686512 64.5138889,9.70734131 C63.8343254,10.8928571 62.3164682,11.3045635 61.1309524,10.6349206 C55.5208333,7.44047619 49.171627,5.75396821 42.7579365,5.75396821 C22.2420635,5.75396821 5.5555556,22.4404762 5.5555556,42.9563492 C5.5555556,63.4722223 22.2420635,80.1587301 42.7579365,80.1587301 C49.171627,80.1587301 55.5208333,78.4722223 61.1309524,75.2827381 C62.3164682,74.6081349 63.8343254,75.014881 64.5138889,76.2103175 C65.188492,77.4007937 64.7718254,78.9136905 63.5813492,79.5932539 C57.2271825,83.2043651 50.0297619,85.1190476 42.7579365,85.1190476 Z" id="Shape"></path>
        </g>
    </g>
</svg>