<?xml version="1.0" encoding="UTF-8"?>
<svg width="54px" height="64px" viewBox="0 0 54 64" version="1.1" xmlns="http://www.w3.org/2000/svg" xmlns:xlink="http://www.w3.org/1999/xlink">
    <!-- Generator: Sketch 50 (54983) - http://www.bohemiancoding.com/sketch -->
    <title>Shape</title>
    <desc>Created with Sketch.</desc>
    <defs></defs>
    <g id="Page-1" stroke="none" stroke-width="1" fill="none" fill-rule="evenodd">
        <g id="swap-icon" fill="#000000" fill-rule="nonzero">
            <path d="M53.654,15.16 C53.631,15.044 53.59,14.935 53.552,14.825 C53.531,14.766 53.521,14.704 53.496,14.646 C53.444,14.524 53.378,14.411 53.309,14.297 C53.286,14.257 53.268,14.213 53.243,14.174 C53.142,14.025 53.028,13.885 52.901,13.758 L40.411,1.268 C39.337,0.194 37.597,0.194 36.522,1.268 C35.448,2.341 35.448,4.082 36.522,5.157 L44.319,12.955 L3.625,12.955 C2.106,12.955 0.875,14.186 0.875,15.705 C0.875,17.224 2.106,18.455 3.625,18.455 L44.319,18.455 L36.52,26.254 C35.446,27.327 35.446,29.068 36.52,30.143 C37.057,30.68 37.76,30.949 38.464,30.949 C39.168,30.949 39.871,30.68 40.408,30.143 L52.901,17.651 C53.028,17.524 53.142,17.384 53.243,17.235 C53.268,17.196 53.286,17.152 53.309,17.112 C53.377,16.999 53.444,16.885 53.496,16.763 C53.52,16.705 53.531,16.643 53.552,16.584 C53.589,16.474 53.63,16.365 53.654,16.249 C53.689,16.071 53.709,15.89 53.709,15.705 C53.709,15.52 53.689,15.338 53.654,15.16 Z M50.375,45.546 L9.681,45.546 L17.48,37.747 C18.554,36.674 18.554,34.933 17.48,33.858 C16.406,32.783 14.666,32.784 13.591,33.858 L1.098,46.351 C0.971,46.478 0.857,46.618 0.756,46.767 C0.732,46.805 0.715,46.847 0.693,46.885 C0.624,46.999 0.555,47.114 0.504,47.239 C0.481,47.296 0.47,47.357 0.449,47.415 C0.412,47.526 0.37,47.636 0.346,47.753 C0.31,47.931 0.291,48.112 0.291,48.297 C0.291,48.482 0.31,48.663 0.346,48.841 C0.369,48.958 0.411,49.068 0.449,49.179 C0.47,49.237 0.48,49.298 0.504,49.355 C0.556,49.479 0.624,49.594 0.693,49.709 C0.715,49.747 0.732,49.789 0.756,49.827 C0.857,49.976 0.971,50.116 1.098,50.243 L13.589,62.734 C14.126,63.271 14.829,63.54 15.533,63.54 C16.237,63.54 16.94,63.271 17.477,62.734 C18.551,61.661 18.551,59.92 17.477,58.845 L9.68,51.047 L50.374,51.047 C51.893,51.047 53.124,49.816 53.124,48.297 C53.124,46.778 51.894,45.546 50.375,45.546 Z" id="Shape"></path>
        </g>
    </g>
</svg>